# xmcd
#
# Track frame offsets:
#	150
#	20121
#	37147
#	53662
#	68478
#	83858
#	100739
#	118600
#	133775
#	149534
#	161524
#	176054
#
# Disc length: 2526
#
# Revision: 1
# Processed by: cddbd v1.5.1PL0 Copyright (c) Steve Scherf et al.
# Submitted via: VisiTrax 2.9.9.202 - For more info visit www.synapsa.com
# Normalized: r0:DSETVAR1
#
DISCID=a709dc0c
DTITLE=Various Artist - Ultimate Country Hits - Vol. 1
DYEAR=2003
DGENRE=Country
TTITLE0=LeAnn Rimes - How Do I Live
TTITLE1=Tim McGraw - It's Your Love
TTITLE2=Jo Dee Messina - Lesson In Leavin'
TTITLE3=Bellamy Brothers - Let Your Love Flow
TTITLE4=Desert Rose Band - One Step Forward
TTITLE5=Johnny Lee - Lookin' For Love
TTITLE6=Sawyer Brown - This Night Won't Last Forever
TTITLE7=Jeff Carson - Not On Your Love
TTITLE8=David Kersh - Goodnight Sweetheart
TTITLE9=Marie Osmond - Paper Roses
TTITLE10=The Judds - Mama He's Crazy
TTITLE11=Hank Williams Jr. - All My Rowdy Friends Are Coming Over Tonight
EXTD=
EXTT0=
EXTT1=
EXTT2=
EXTT3=
EXTT4=
EXTT5=
EXTT6=
EXTT7=
EXTT8=
EXTT9=
EXTT10=
EXTT11=
PLAYORDER=
